<svg width="37" height="37" viewBox="0 0 37 37" fill="none" xmlns="http://www.w3.org/2000/svg">
<path d="M7.58984 16.5762L30.0898 16.5762C30.7112 16.5762 31.2148 16.0725 31.2148 15.4512L31.2148 8.70117C31.2148 8.07985 30.7112 7.57617 30.0898 7.57617L7.58984 7.57617C6.96852 7.57617 6.46484 8.07985 6.46484 8.70117L6.46484 15.4512C6.46484 16.0725 6.96852 16.5762 7.58984 16.5762Z" fill="black"/>
<path d="M7.58984 30.0762L30.0898 30.0762C30.7112 30.0762 31.2148 29.5725 31.2148 28.9512L31.2148 22.2012C31.2148 21.5799 30.7112 21.0762 30.0898 21.0762L7.58984 21.0762C6.96852 21.0762 6.46484 21.5798 6.46484 22.2012L6.46484 28.9512C6.46484 29.5725 6.96852 30.0762 7.58984 30.0762Z" fill="black"/>
<path d="M11.5898 23.8887C10.6233 23.8887 9.83984 24.6722 9.83984 25.6387C9.83984 26.6052 10.6233 27.3887 11.5898 27.3887C12.5563 27.3887 13.3398 26.6052 13.3398 25.6387C13.3398 24.6722 12.5563 23.8887 11.5898 23.8887Z" fill="white"/>
<path d="M11.5898 10.387C10.6233 10.387 9.83984 11.1705 9.83984 12.137C9.83984 13.1035 10.6233 13.887 11.5898 13.887C12.5563 13.887 13.3398 13.1035 13.3398 12.137C13.3398 11.1705 12.5563 10.387 11.5898 10.387Z" fill="white"/>
</svg>
